<svg width="22" height="21" viewBox="0 0 22 21" fill="none" xmlns="http://www.w3.org/2000/svg">
<g clip-path="url(#clip0_587_104)">
<path d="M10.9944 0.000316222C11.1573 0.00154304 11.3174 0.042542 11.4608 0.119748C11.6042 0.196954 11.7266 0.30803 11.8174 0.443316L11.8844 0.559316L14.7364 6.34032L21.1164 7.26532C21.8574 7.37332 22.1964 8.20532 21.8194 8.79132L21.7494 8.88632L21.6714 8.97232L17.0474 13.4713L18.1374 19.8263C18.166 19.9921 18.1524 20.1625 18.0977 20.3217C18.043 20.4808 17.9491 20.6236 17.8245 20.7368C17.7 20.8499 17.5489 20.9299 17.3852 20.9691C17.2216 21.0084 17.0507 21.0057 16.8884 20.9613L16.7874 20.9263L16.6864 20.8803L10.9934 17.8803L5.28737 20.8803C5.18203 20.935 5.07537 20.9703 4.96737 20.9863L4.86137 20.9963C4.7218 21.0014 4.5827 20.9773 4.45299 20.9256C4.32327 20.8738 4.20579 20.7955 4.10808 20.6957C4.01037 20.596 3.93457 20.4769 3.88554 20.3461C3.83651 20.2153 3.81533 20.0757 3.82336 19.9363L3.83636 19.8263L4.92637 13.4713L0.303365 8.97132C0.183571 8.85499 0.0948116 8.71053 0.0451854 8.55109C-0.00444073 8.39166 -0.0133538 8.22234 0.0192594 8.05858C0.0518726 7.89481 0.124974 7.74183 0.231893 7.61357C0.338813 7.48531 0.476147 7.38587 0.631365 7.32432L0.744365 7.28832L0.858365 7.26532L7.23737 6.34032L10.0904 0.560316C10.1701 0.389086 10.2982 0.244879 10.4588 0.145398C10.6194 0.045918 10.8055 -0.00450618 10.9944 0.000316222ZM10.9944 3.27432V15.7503C11.0749 15.7503 11.1552 15.7601 11.2334 15.7793L11.3484 15.8153L11.4604 15.8653L15.8234 18.1643L14.9874 13.2913C14.9462 13.0505 14.9945 12.8029 15.1234 12.5953L15.1934 12.4963L15.2754 12.4063L18.8214 8.95332L13.9304 8.24532C13.6886 8.21023 13.4681 8.08786 13.3104 7.90132L13.2374 7.80432L13.1774 7.69832L10.9944 3.27432Z" fill="#FFC300"/>
</g>
<defs>
<clipPath id="clip0_587_104">
<rect width="21.9745" height="20.997" fill="white"/>
</clipPath>
</defs>
</svg>
