<svg width="100%" height="100%" viewBox="0 0 19 19" fill="none" xmlns="http://www.w3.org/2000/svg">
<path d="M18.885 9.51812C18.885 4.29946 14.6695 0.0527344 9.44244 0.0527344C4.21535 0.0527344 0 4.27833 0 9.51812C0 14.0396 3.18266 17.8217 7.41914 18.7514V11.2508H6.02798C5.9226 11.2508 5.83836 11.1661 5.83836 11.0604V8.77894C5.83836 8.6733 5.9226 8.5886 6.02798 8.5886H7.41914V6.37004C7.41914 4.82768 8.66269 3.58098 10.2013 3.58098H12.8148C12.9202 3.58098 13.0045 3.66567 13.0045 3.77132V6.05333C13.0045 6.15897 12.9202 6.24315 12.8148 6.24315H11.2552C10.8758 6.24315 10.5596 6.56024 10.5596 6.94054V8.56746H12.7726C12.878 8.56746 12.9835 8.6733 12.9624 8.77894L12.7726 11.0604C12.7726 11.0604 12.6884 11.2296 12.583 11.2296H10.5807V18.836C10.5807 18.836 10.5807 18.836 10.5807 18.8571C15.2598 18.2867 18.885 14.3142 18.885 9.47582V9.51812Z" fill="currentColor"/>
</svg>
