<svg width="100%" height="100%" viewBox="0 0 20 19" fill="none" xmlns="http://www.w3.org/2000/svg">
<path d="M15.3226 5.57827C15.9279 5.57827 16.4187 5.08634 16.4187 4.47957C16.4187 3.87279 15.9279 3.38086 15.3226 3.38086C14.7173 3.38086 14.2266 3.87279 14.2266 4.47957C14.2266 5.08634 14.7173 5.57827 15.3226 5.57827Z" fill="currentColor"/>
<path d="M10.4116 4.7959C7.8613 4.7959 5.77466 6.88749 5.77466 9.444C5.77466 12.0005 7.8613 14.0926 10.4116 14.0926C12.9619 14.0926 15.0486 12.0005 15.0486 9.444C15.0486 6.88749 12.9619 4.7959 10.4116 4.7959ZM10.4116 12.4445C8.76761 12.4445 7.43982 11.1131 7.43982 9.46515C7.43982 7.81715 8.76761 6.48626 10.4116 6.48626C12.0556 6.48626 13.3835 7.81715 13.3835 9.46515C13.3835 11.1131 12.0556 12.4445 10.4116 12.4445Z" fill="currentColor"/>
<path d="M14.0791 18.9096H6.55472C3.43533 18.9096 0.88501 16.3532 0.88501 13.2263V5.68336C0.88501 2.55639 3.43533 0 6.55472 0H14.0791C17.1985 0 19.7488 2.55639 19.7488 5.68336V13.2263C19.7488 16.3532 17.1985 18.9096 14.0791 18.9096ZM6.55472 1.77495C4.40487 1.77495 2.6554 3.52828 2.6554 5.68336V13.2263C2.6554 15.3813 4.40487 17.1352 6.55472 17.1352H14.0791C16.2289 17.1352 17.9784 15.3813 17.9784 13.2263V5.68336C17.9784 3.52828 16.2289 1.77495 14.0791 1.77495H6.55472Z" fill="currentColor"/>
</svg>
