<svg width="1440" height="538" viewBox="0 0 1440 538" fill="none" xmlns="http://www.w3.org/2000/svg">
<path d="M1255.5 408.501C1327.49 407.333 1439 420.001 1439 420.001L1439.16 0.783203H1V383.5C1 383.5 122.643 333.627 205 334.001C285.84 334.367 329.536 357.262 406 383.501C463.283 403.157 491.239 425.298 549 443.501C629.221 468.781 677.434 475.259 761.5 478.001C807.5 479.501 873 472.832 925.5 461.001C961 453.001 1019.15 434.695 1080.5 424.501C1148.2 413.25 1186.88 409.614 1255.5 408.501Z" fill="#E2F9EF"/>
<path d="M1 522.5V0.783203H1439.16V283.001C1439.16 283.001 1325.5 241.501 1141.5 235.001C1058.5 232.069 940.5 253.001 859.5 281.001C778.5 309.001 712 341.501 639.5 388.001C567 434.501 484.846 477.055 384 504.501C305 526.001 263 534.001 181 537.501C97.5 541.065 1 522.5 1 522.5Z" fill="#F6F6F6"/>
</svg>
