<svg width="1443" height="986" viewBox="0 0 1443 986" fill="none" xmlns="http://www.w3.org/2000/svg">
<path d="M1256.5 852.5C1328.49 851.332 1442.5 865 1442.5 865V1L0.999138 0L0.573069 413.5L0.146484 827.5C0.146484 827.5 123.642 777.626 205.999 778C286.839 778.367 330.535 801.261 406.999 827.5C464.282 847.157 492.238 869.297 549.999 887.5C630.221 912.781 678.433 919.259 762.499 922C808.499 923.5 873.999 916.831 926.499 905C961.999 897 1020.15 878.695 1081.5 868.5C1149.2 857.25 1187.88 853.613 1256.5 852.5Z" fill="#E2F9EF"/>
<path d="M1 970.5L0.999138 0L1442.5 1L1441.63 752.5C1441.63 752.5 1326 703 1142 696.5C1059 693.568 934.999 698 857.499 729C779.999 760 715.499 793.5 642.999 840C570.499 886.5 482.846 925.054 381.999 952.5C302.999 974 260.999 982 178.999 985.5C95.4991 989.064 1 970.5 1 970.5Z" fill="#F6F6F6"/>
</svg>
